<?xml version="1.0"?>
<svg xmlns="http://www.w3.org/2000/svg" xmlns:xlink="http://www.w3.org/1999/xlink" version="1.1" id="Layer_1" x="0px" y="0px" viewBox="0 0 297 297" style="enable-background:new 0 0 297 297;" xml:space="preserve" width="512px" height="512px" class=""><g><g>
	<g>
		<g>
			<g>
				<g>
					<circle style="fill:#FF3F00" cx="148.5" cy="148.5" r="148.5" data-original="#C63C22" class="" data-old_color="#ff3f00"/>
				</g>
			</g>
		</g>
	</g>
	<path style="fill:#FF3F00" d="M207.238,61.669L74.25,256.5l35.338,35.338C121.991,295.197,135.034,297,148.5,297   c81.046,0,146.92-64.928,148.463-145.605L207.238,61.669z" data-original="#A02D27" class="" data-old_color="#ff3f00"/>
	<g>
		<polygon style="fill:#FFFFFF;" points="186.068,40.5 74.25,40.5 74.25,256.5 222.75,256.5 222.75,77.182   " data-original="#FFFFFF" class=""/>
	</g>
	<g>
		<path style="fill:#EDECEB;" d="M222.75,77.182L186.068,40.5h-37.674c-0.505,72,0.977,144-1.379,216h75.735V77.182z" data-original="#EDECEB" class=""/>
	</g>
	<g>
		<polygon style="fill:#DFDAD7;" points="186.068,77.182 222.75,77.182 186.068,40.5   " data-original="#DFDAD7" class=""/>
	</g>
	<g>
		<polygon style="fill:#C93808" points="132,88.833 118.667,88.833 118.667,75.5 105.333,75.5 105.333,88.833 92,88.833     92,102.167 105.333,102.167 105.333,115.5 118.667,115.5 118.667,102.167 132,102.167   " data-original="#F86E51" class="" data-old_color="#FF3F00"/>
	</g>
	<g>
		<rect x="90.75" y="144.5" style="fill:#32373B" width="115.5" height="4" data-original="#32373B" class="active-path"/>
	</g>
	<g>
		<rect x="90.75" y="166.5" style="fill:#32373B" width="115.5" height="4" data-original="#32373B" class="active-path"/>
	</g>
	<g>
		<rect x="90.75" y="188.5" style="fill:#32373B" width="115.5" height="4" data-original="#32373B" class="active-path"/>
	</g>
	<g>
		<rect x="90.75" y="210.5" style="fill:#32373B" width="115.5" height="4" data-original="#32373B" class="active-path"/>
	</g>
	<g>
		<g>
			<g>
				<g>
					<circle style="fill:#FF3F00" cx="148.5" cy="148.5" r="148.5" data-original="#C63C22" class="" data-old_color="#ff3f00"/>
				</g>
			</g>
		</g>
	</g>
	<path style="fill:#FF3F00" d="M207.238,61.669L74.25,256.5l35.338,35.338C121.991,295.197,135.034,297,148.5,297   c81.046,0,146.92-64.928,148.463-145.605L207.238,61.669z" data-original="#A02D27" class="" data-old_color="#ff3f00"/>
	<g>
		<polygon style="fill:#FFFFFF;" points="186.068,40.5 74.25,40.5 74.25,256.5 222.75,256.5 222.75,77.182   " data-original="#FFFFFF" class=""/>
	</g>
	<g>
		<path style="fill:#EDECEB;" d="M222.75,77.182L186.068,40.5h-37.674c-0.505,72,0.977,144-1.379,216h75.735V77.182z" data-original="#EDECEB" class=""/>
	</g>
	<g>
		<polygon style="fill:#DFDAD7;" points="186.068,77.182 222.75,77.182 186.068,40.5   " data-original="#DFDAD7" class=""/>
	</g>
	<g>
		<polygon style="fill:#C93808" points="132,88.833 118.667,88.833 118.667,75.5 105.333,75.5 105.333,88.833 92,88.833     92,102.167 105.333,102.167 105.333,115.5 118.667,115.5 118.667,102.167 132,102.167   " data-original="#F86E51" class="" data-old_color="#FF3F00"/>
	</g>
	<g>
		<rect x="90.75" y="144.5" style="fill:#32373B" width="115.5" height="4" data-original="#32373B" class="active-path"/>
	</g>
	<g>
		<rect x="90.75" y="166.5" style="fill:#32373B" width="115.5" height="4" data-original="#32373B" class="active-path"/>
	</g>
	<g>
		<rect x="90.75" y="188.5" style="fill:#32373B" width="115.5" height="4" data-original="#32373B" class="active-path"/>
	</g>
	<g>
		<rect x="90.75" y="210.5" style="fill:#32373B" width="115.5" height="4" data-original="#32373B" class="active-path"/>
	</g>
</g></g> </svg>
