<?xml version="1.0"?>
<svg xmlns="http://www.w3.org/2000/svg" xmlns:xlink="http://www.w3.org/1999/xlink" version="1.1" id="Capa_1" x="0px" y="0px" viewBox="0 0 512 512" style="enable-background:new 0 0 512 512;" xml:space="preserve" width="512px" height="512px" class=""><g><circle style="fill:#FF3F00" cx="256" cy="256" r="256" data-original="#FFDD3B" class="" data-old_color="#ff3f00"/><path style="fill:#FF3F00" d="M120.315,67.765v72.525l19.796,19.796H92.497v253.202l87.118,87.118  C203.74,507.938,229.395,512,256,512c123.243,0,226.134-87.094,250.513-203.089L265.366,67.765h-73.151H120.315z" data-original="#F3C000" class="" data-old_color="#ff3f00"/><polygon style="fill:#FFFFFF" points="243.274,160.086 243.274,106.946 142.406,106.946 142.406,160.086 92.497,160.086   92.497,413.288 293.183,413.288 293.183,160.086 " data-original="#FFFFFF" class=""/><polygon style="fill:#C8C6CB" points="243.274,160.086 243.274,106.946 192.215,106.946 192.215,413.288 293.183,413.288   293.183,160.086 " data-original="#C8C6CB" class=""/><rect x="120.31" y="67.765" style="fill:#FFFFFF" width="145.057" height="72.523" data-original="#FF9800" class="active-path" data-old_color="#F4F0FD"/><rect x="192.211" y="67.765" style="fill:#C8C6CB" width="73.151" height="72.523" data-original="#F88800" class="" data-old_color="#506B79"/><rect x="120.31" y="230.32" style="fill:#72B9E6;" width="145.057" height="98.364" data-original="#72B9E6" class=""/><rect x="192.211" y="230.32" style="fill:#52AADE;" width="73.151" height="98.364" data-original="#52AADE" class=""/><circle style="fill:#E2E2E4" cx="313.615" cy="404.45" r="48.248" data-original="#E2E2E4" class=""/><path style="fill:#C8C6CB" d="M304.234,451.774c3.034,0.598,6.168,0.919,9.378,0.919s6.344-0.32,9.379-0.919v-94.655  c-3.035-0.598-6.169-0.919-9.379-0.919s-6.344,0.32-9.378,0.919V451.774z" data-original="#C8C6CB" class=""/><circle style="fill:#E2E2E4" cx="416.768" cy="341.926" r="48.248" data-original="#E2E2E4" class=""/><path style="fill:#C8C6CB" d="M376.676,368.758c1.723,2.568,3.713,5.011,5.981,7.28c2.269,2.27,4.712,4.26,7.281,5.982  l66.931-66.931c-1.723-2.569-3.712-5.012-5.982-7.281c-2.27-2.27-4.712-4.259-7.28-5.981L376.676,368.758z" data-original="#C8C6CB" class=""/></g> </svg>
